# xmcd
#
# Track frame offsets:
#	150
#	20462
#	41003
#	66433
#	98459
#	116204
#	139325
#	166269
#	180319
#	203008
#	227823
#
# Disc length: 3248 seconds
# Revision: 0
# Processed by: cddbd v1.5.2PL0 Copyright (c) Steve Scherf et al.
# Submitted via: dBpowerAMP V12.0
#
DISCID=910cae0b
DTITLE=Jim Leverton - Live at The Duke
DYEAR=2014
DGENRE=Blues
TTITLE0=Any More For Anymore
TTITLE1=Rollon Babe
TTITLE2=Golden Ring
TTITLE3=I Can Disappear
TTITLE4=Save Me A Saturday Night
TTITLE5=Bee's Wing
TTITLE6=Ride On
TTITLE7=How Come?
TTITLE8=Sea of Heartbreak
TTITLE9=Say It Ain't So
TTITLE10=I can't Change It
EXTD=
EXTT0=
EXTT1=
EXTT2=
EXTT3=
EXTT4=
EXTT5=
EXTT6=
EXTT7=
EXTT8=
EXTT9=
EXTT10=
PLAYORDER=
